<svg xmlns="http://www.w3.org/2000/svg" viewBox="0 0 80 80" role="img" aria-labelledby="title desc">
  <title id="title">Google</title>
  <desc id="desc">Google G logo badge</desc>
  <rect width="80" height="80" rx="18" fill="#fff"/>
  <path d="M40 18a22 22 0 0 1 15.5 6.4" fill="none" stroke="#ea4335" stroke-width="9" stroke-linecap="round"/>
  <path d="M55.5 24.4A22 22 0 0 1 61 40" fill="none" stroke="#4285f4" stroke-width="9" stroke-linecap="round"/>
  <path d="M61 40c0 12.7-8.9 22-21 22a22 22 0 0 1-18.7-10.3" fill="none" stroke="#34a853" stroke-width="9" stroke-linecap="round"/>
  <path d="M21.3 51.7A22 22 0 0 1 24.5 25" fill="none" stroke="#fbbc05" stroke-width="9" stroke-linecap="round"/>
  <path d="M24.5 25A22 22 0 0 1 40 18" fill="none" stroke="#ea4335" stroke-width="9" stroke-linecap="round"/>
  <path d="M40 40h22" fill="none" stroke="#4285f4" stroke-width="9" stroke-linecap="round"/>
  <path d="M61 40c0 5.3-2 10.1-5.6 13.9" fill="none" stroke="#4285f4" stroke-width="9" stroke-linecap="round"/>
</svg>
